<svg id="グループ_1218" data-name="グループ 1218" xmlns="http://www.w3.org/2000/svg" xmlns:xlink="http://www.w3.org/1999/xlink" width="142.633" height="54.332" viewBox="0 0 142.633 54.332">
  <defs>
    <clipPath id="clip-path">
      <rect id="長方形_736" data-name="長方形 736" width="142.633" height="54.332" fill="none"/>
    </clipPath>
    <clipPath id="clip-path-3">
      <rect id="長方形_732" data-name="長方形 732" width="30.764" height="40.8" fill="none"/>
    </clipPath>
    <clipPath id="clip-path-4">
      <rect id="長方形_733" data-name="長方形 733" width="54.332" height="54.332" fill="none"/>
    </clipPath>
    <clipPath id="clip-path-5">
      <rect id="長方形_734" data-name="長方形 734" width="46.247" height="46.247" fill="none"/>
    </clipPath>
  </defs>
  <g id="グループ_1217" data-name="グループ 1217" clip-path="url(#clip-path)">
    <g id="グループ_1216" data-name="グループ 1216">
      <g id="グループ_1215" data-name="グループ 1215" clip-path="url(#clip-path)">
        <g id="グループ_1208" data-name="グループ 1208" transform="translate(14.263 5.78)" opacity="0.5">
          <g id="グループ_1207" data-name="グループ 1207">
            <g id="グループ_1206" data-name="グループ 1206" clip-path="url(#clip-path-3)">
              <path id="パス_2729" data-name="パス 2729" d="M81.2,66.123c4.106-2.209,9.8-5.249,10.4-5.549a3.033,3.033,0,0,0,1.308-4.1c-2.258-4.241-6.641-12.519-11.683-21.806h0c-1.732-3.216-3.2-5.909-4.23-7.78a3.033,3.033,0,0,0-4.143-1.169c-.582.336-6.257,3.412-10.363,5.62l1.032,1.918,11.414-6.117.715,1.373L64.245,34.6l.714,1.327,11.4-6.062.714,1.327-11.378,6.1.714,1.327,11.37-6.07.715,1.373L67.139,39.98l.723,1.345,11.2-6,.669,1.326L68.6,42.7l.723,1.345L80.452,38l.741,1.335L70.051,45.394l.713,1.327,11.18-6.036L82.675,42,71.5,48.084l.723,1.345,11.2-6.092.751,1.354L72.944,50.774l.713,1.326L84.9,46.007l.741,1.335-11.25,6.121L75.1,54.79,86.392,48.7l.741,1.335-11.305,6.1.723,1.345,11.314-6.132.751,1.353L77.285,58.843,78,60.169l11.359-6.133.713,1.327-11.34,6.169.713,1.327L90.812,56.7l.751,1.353L80.168,64.2Z" transform="translate(-62.49 -25.323)" fill="#ebb708"/>
            </g>
          </g>
        </g>
        <path id="パス_2730" data-name="パス 2730" d="M103.176,161.624c.631-2.436-.3-4.784-2.088-5.246s-3.741,1.138-4.372,3.574.3,4.784,2.088,5.246,3.741-1.138,4.372-3.574m-4.067,2.394c-1.21-.313-1.816-2.014-1.355-3.8s1.817-2.976,3.027-2.663,1.817,2.014,1.355,3.8-1.817,2.976-3.027,2.663" transform="translate(-74.489 -120.624)" fill="#ebb708"/>
        <path id="パス_2731" data-name="パス 2731" d="M114.263,70.975l-1.2-.265c.338-11.959.556-20.56.448-22.9-.024-.479-.119-1.972.887-2.556a2.543,2.543,0,0,1,1.693-.184c-.015.226-.034.445-.049.671l-1.59-.017,0,.4,1.568.017c-.01.132-.019.258-.029.39l-1.842-.018,0,.4,1.819.021c-.012.137-.017.271-.028.408l-1.8-.026-.006.408,1.774.02c-.01.132-.022.269-.032.4l-1.747-.018,0,.4,1.723.022c-.01.132-.017.27-.027.4l-1.7-.016,0,.4,1.679.021c-.011.137-.02.264-.027.4l0,.005-1.655-.025,0,.4,1.628.023c-.005.133-.017.27-.027.4l-1.607-.017,0,.4,1.583.02c-.01.132-.022.269-.027.4l-1.561-.02-.006.408,1.539.019c-.01.131-.022.269-.027.4l-1.517-.018,0,.4,1.488.021c-.01.132-.017.27-.027.4l-1.467-.015,0,.4,1.443.02c-.01.132-.022.269-.026.4l-1.421-.018-.006.408,1.393.016c0,.134-.017.27-.026.4l-1.372-.016,0,.4,1.348.019c-.01.132-.016.271-.027.4l-1.327-.014,0,.4,1.3.013c-.012.137-.022.269-.034.406l-1.276-.016-.006.408,1.254.015c-.005.134-.017.27-.027.4l-1.231-.014,0,.4,1.208.019c-.01.131-.022.269-.027.4L114,57.843l-.006.408,1.159.01q-.447,6.357-.893,12.714" transform="translate(-87.254 -34.735)" fill="#ebb708"/>
        <path id="パス_2732" data-name="パス 2732" d="M104.928,195.94a.279.279,0,0,0,.173-.109c.216-.343-.746-1.117-1.14-1.856-.312-.585-.377-1.621.851-3.6a2.122,2.122,0,0,1-1.09.385,2.189,2.189,0,0,1-1.5-.511,6.241,6.241,0,0,0,.856,4.191c.1.152,1.157,1.691,1.853,1.5" transform="translate(-78.848 -146.829)" fill="#ebb708"/>
        <path id="パス_2733" data-name="パス 2733" d="M69.106,150.2c1.086-2.269,3.315-3.464,4.977-2.668s2.129,3.28,1.043,5.55-3.315,3.464-4.977,2.668-2.129-3.281-1.042-5.55m1.569,4.45c1.127.54,2.686-.37,3.482-2.032s.527-3.447-.6-3.987-2.686.37-3.482,2.032-.527,3.447.6,3.987" transform="translate(-52.88 -113.665)" fill="#ebb708"/>
        <path id="パス_2734" data-name="パス 2734" d="M106.611,58.084a2.541,2.541,0,0,0-1.177-1.231l-.006.008-.01-.013-15.275,21,1.091.573c7.445-9.366,12.818-16.086,14.408-17.806.327-.35,1.361-1.431.968-2.527" transform="translate(-69.569 -43.873)" fill="#ebb708"/>
        <path id="パス_2735" data-name="パス 2735" d="M114.227,112.244a1.484,1.484,0,1,1-.87-1.91,1.484,1.484,0,0,1,.87,1.91" transform="translate(-85.937 -85.078)" fill="#ebb708"/>
        <path id="パス_2736" data-name="パス 2736" d="M115.366,113.656a1.018,1.018,0,1,1-.6-1.311,1.018,1.018,0,0,1,.6,1.311" transform="translate(-87.512 -86.654)" fill="#ebb708"/>
        <g id="グループ_1211" data-name="グループ 1211" opacity="0.5">
          <g id="グループ_1210" data-name="グループ 1210">
            <g id="グループ_1209" data-name="グループ 1209" clip-path="url(#clip-path-4)">
              <path id="パス_2737" data-name="パス 2737" d="M54.332,27.166A27.166,27.166,0,1,1,27.166,0,27.166,27.166,0,0,1,54.332,27.166M27.166,2.32A24.846,24.846,0,1,0,52.012,27.166,24.846,24.846,0,0,0,27.166,2.32" fill="#ebb708"/>
            </g>
          </g>
        </g>
        <g id="グループ_1214" data-name="グループ 1214" transform="translate(4.043 4.042)" opacity="0.5">
          <g id="グループ_1213" data-name="グループ 1213">
            <g id="グループ_1212" data-name="グループ 1212" clip-path="url(#clip-path-5)">
              <path id="パス_2738" data-name="パス 2738" d="M63.959,40.835A23.123,23.123,0,1,1,40.835,17.711,23.123,23.123,0,0,1,63.959,40.835M40.835,18.363A22.472,22.472,0,1,0,63.307,40.835,22.472,22.472,0,0,0,40.835,18.363" transform="translate(-17.712 -17.711)" fill="#ebb708"/>
            </g>
          </g>
        </g>
        <path id="パス_2739" data-name="パス 2739" d="M297.42,33.281c0,2.917-2.629,4.953-5.52,4.953-1.431,0-3.8-.132-4.075-.157-1.248.044-2.3.064-3.73.105-.133,0-.169-.026-.169-.056,0-.046.135-.1.58-.1.714,0,1.874-.225,2.07-2.312.015-.45.173-3.145.173-5.84s-.159-5.619-.173-6.07c-.2-2.135-1.356-2.36-2.07-2.36-.445,0-.576-.057-.576-.1,0-.031.032-.056.165-.056,1.458.041,2.52.086,3.8.132,1.515-.054,2.781-.139,4.282-.139,1.772,0,4.164.684,4.164,3.779a5.328,5.328,0,0,1-2.786,4.1c1.763.364,3.868,1.554,3.868,4.13m-2.579,0c0-2.25-.858-3.28-2.206-3.719a6.943,6.943,0,0,1-1.717.266c-.823,0-.966-.3-.966-.491s.12-.505.966-.505a15.149,15.149,0,0,1,1.708.17A4.534,4.534,0,0,0,294,25.45c0-3.05-1.938-3.6-3.271-3.6-.335,0-.916.025-1.351.046a57.537,57.537,0,0,0-.362,7.989,55.625,55.625,0,0,0,.461,7.658,17.447,17.447,0,0,0,2.043.158c2.273,0,3.325-1.72,3.325-4.415" transform="translate(-219.122 -16.419)" fill="#ebb708"/>
        <path id="パス_2740" data-name="パス 2740" d="M362.448,47.514c-1.3.154-4.648.411-6.737.587.049,3.037,1.407,5.405,3.758,5.405a3.339,3.339,0,0,0,3-1.189c.112-.151.24-.074.161.044a5.067,5.067,0,0,1-4.228,2.17c-3.836,0-5.606-3-5.606-6.042,0-3.415,1.849-6.1,5.231-6.266,2.51-.124,4.685,1.179,4.8,5.129,0,.086-.036.119-.382.161m-2.335-.83c-.1-2.83-.676-4.126-2.087-4.126-1.528,0-2.283,2.14-2.316,5.031h.259a32.738,32.738,0,0,0,3.624-.221c.392-.044.541-.112.52-.685" transform="translate(-272.272 -32.581)" fill="#ebb708"/>
        <path id="パス_2741" data-name="パス 2741" d="M417.013,54.333c-1.055,0-2.306.165-3.132.165-1.227,0-1.492-.538-1.492-1.444,0-1.095.079-1.733.079-2.294h-.115c-.4,1.648-2.285,3.7-4.154,3.7a2.836,2.836,0,0,1-2.941-3.092c0-3.213,3.735-3.992,6.139-3.992.481,0,.793.007.992.016,0-3.579-.7-4.83-2.267-4.83s-2.012,1.173-2.012,2.728a8.843,8.843,0,0,0,.094,1.237c.017.118-.046.175-.1.175-.338,0-2.224-.616-2.224-1.678,0-1.928,2.538-2.8,4.327-2.82,4.011-.047,4.634,1.808,4.515,4.243-.028.563-.076,2.821-.076,3.472,0,3.344.31,4.254,1.954,4.254.45,0,.63.057.63.1s-.05.056-.215.056m-5.276-6.616c-1.482,0-3.9.972-3.9,3.58,0,1.127.567,1.771,1.279,1.771,1.9,0,3.4-2.942,3.274-5.334,0-.009-.433-.016-.652-.016" transform="translate(-312.761 -32.571)" fill="#ebb708"/>
        <path id="パス_2742" data-name="パス 2742" d="M472.337,54.115c.244,0,.368.083.368.1s-.05.056-.215.056c-1.055,0-2.043.213-2.869.213-1.781,0-1.61-.958-1.652-2.471l-.007-1.278h-.114a5.06,5.06,0,0,1-4.557,3.841c-2.25,0-3.1-1.665-3.1-3.652,0-.8.059-1.734.059-2.806,0-.349,0-1.5-.014-1.874-.071-2.7.033-3.526-1.852-3.526-.61,0-.618-.062-.618-.1s.079-.056.211-.056c1.962,0,3.309-.416,4.041-.416.7,0,.827.446.827,2.1,0,1.392-.033,4.372-.033,6.638,0,1.509.284,2.856,1.467,2.856,1.472,0,3.467-2.116,3.467-4.75,0-.77.05-1.994.05-2.87a17.971,17.971,0,0,0-.1-2.218,1.325,1.325,0,0,0-1.464-1.315c-.222,0-1.055.082-1.1.082-.191,0-.275-.027-.279-.058s.073-.064.2-.078c1.441-.111,2.666-.3,3.93-.391.937-.066,1.286.107,1.286,1.443,0,1.719-.159,3.957-.159,5.97.017,2.75-.133,4.563,2.223,4.563Z" transform="translate(-353.287 -32.512)" fill="#ebb708"/>
        <path id="パス_2743" data-name="パス 2743" d="M535.051,39.923a3.827,3.827,0,0,1-3.6,2.1c-2.32,0-2.465-1.391-2.465-3.5V30.553c-.612-.008-1.354-.024-1.763-.024-.133,0-.133-.547,0-.547a4.324,4.324,0,0,0,1.507-.338c1.618-.575,2.1-2.52,2.363-3.52.018-.093.448-.123.448,0-.015.284-.145,1.29-.176,3.694a11.806,11.806,0,0,0,3.147-.22c.236-.1.121,1.054-.051,1.054-.569,0-2.64-.075-3.1-.069v8.051a4.885,4.885,0,0,0,.222,1.661c.325.863,1.113.915,2.122.529a2.633,2.633,0,0,0,1.243-.962c.039-.056.13.014.108.061" transform="translate(-406.809 -20.098)" fill="#ebb708"/>
        <path id="パス_2744" data-name="パス 2744" d="M575.892,43.251c-.009.032.038.121-.519.121-1.224,0-2.091,1.346-2.611,2.685-.717,1.848-2.009,5.352-2.887,7.563l0,0c-.668,1.618-3.592,9.547-4.774,9.575-.577.014-2.018-2.571-2.11-2.908-.045-.163-.046-.214.013-.214a3.321,3.321,0,0,0,1.075.233,3.828,3.828,0,0,0,3.167-2.207c.351-.642.913-1.929,1.384-3.059-1.081-2.464-2.027-4.7-2.895-6.645-1.242-2.786-1.87-5.025-4.212-5.025-.155,0-.194-.144,0-.144,1.12,0,1.664,0,2.769.056.572-.056,3.188-.088,3.474-.088.111,0,.111.26,0,.26-.087,0-3.457-.172-3.474-.081,1.071,0,1.906-.052,2.568,1.532.575,1.373,1.883,4.583,2.936,7.107l.008.02c.641-1.608,1.576-4.073,2.123-5.675.579-1.7.866-2.988-.474-2.988-.356,0-.487-.088-.478-.121s.075-.04.181-.04c1.159.029,1.138.044,2.03.077,1.066-.032,1.429-.049,2.546-.077.106,0,.165.018.159.04" transform="translate(-433.26 -33.337)" fill="#ebb708"/>
        <path id="パス_2745" data-name="パス 2745" d="M282.385,126.8c0-2.713.31-4.034.31-6.037,0-.166.089-.249.178-.249s.178.083.178.249a8.784,8.784,0,0,0-.051,1.153c0,1.853,2.1,7.057,5.184,7.057,3.453,0,4.355-1.774,4.355-4.128,0-2.247-1.286-3.357-4.439-5.179-4.545-2.628-5.392-4.658-5.392-7.313,0-3.486,2.853-5.256,6.982-5.226a9.672,9.672,0,0,1,3.849.55,2.062,2.062,0,0,1,.214,1.192c0,.89-.13,1.969-.13,2.2,0,.529.442-3.657.626-4.46.015-.066.09-.1.173-.1.145,0,.315.1.233.27a40.709,40.709,0,0,0-.925,7.827c0,.2-.048.294-.1.294s-.1-.1-.1-.294a12.3,12.3,0,0,0-.075-1.564c-.332-2.545-2.474-5.111-5.022-5.111-1.925,0-3.432,1.113-3.432,3.139,0,1.7.5,2.737,4.939,5.205,3.969,2.207,5.057,4.586,5.057,7.153,0,3.774-2.957,6.233-6.713,6.233-1.882,0-4.627-.378-5.649-1.3-.224-.2-.256-.624-.256-1.56" transform="translate(-217.933 -82.205)" fill="#ebb708"/>
        <path id="パス_2746" data-name="パス 2746" d="M366.667,153.16c-1.349,0-2.947.211-4,.211-1.568,0-1.907-.687-1.907-1.846,0-1.4.1-2.214.1-2.931h-.147c-.51,2.106-2.92,4.729-5.308,4.729a3.624,3.624,0,0,1-3.759-3.951c0-4.107,4.774-5.1,7.845-5.1.615,0,1.013.009,1.268.021,0-4.574-.9-6.173-2.9-6.173-1.979,0-2.571,1.5-2.571,3.487a11.34,11.34,0,0,0,.119,1.581c.022.151-.059.224-.131.224-.431,0-2.842-.788-2.842-2.144,0-2.464,3.243-3.578,5.531-3.6,5.126-.06,5.923,2.311,5.77,5.423-.035.719-.1,3.6-.1,4.437,0,4.274.4,5.436,2.5,5.436.575,0,.805.073.805.131,0,.04-.064.072-.274.072m-6.742-8.455c-1.893,0-4.986,1.242-4.986,4.575,0,1.44.724,2.263,1.635,2.263,2.425,0,4.348-3.761,4.184-6.817,0-.012-.554-.021-.833-.021" transform="translate(-271.384 -106.24)" fill="#ebb708"/>
        <path id="パス_2747" data-name="パス 2747" d="M417.475,128.7c0-.058.226-.131.79-.131.9,0,2.071-.288,2.32-2.956.018-.575.22-4.629.22-8.073s-.167-7.336-.22-7.909c-.161-2.21-1.177-2.642-2.03-2.642a3.168,3.168,0,0,0-.554.053c-.555.1-.79.066-.8.009-.007-.039.087-.088.253-.118,1.828-.271,5.141-.872,5.689-.872s.814.18.814,1.422c0,1.211-.165,4.156-.165,10.068,0,3.439.107,7.486.125,8.062.249,2.667,1.416,2.956,2.32,2.956.5,0,.79.079.79.131s-.1.072-.269.072c-1.755-.05-2.834-.079-4.506-.137-1.618.058-2.659.084-4.506.137-.168,0-.269-.033-.269-.072" transform="translate(-321.978 -81.856)" fill="#ebb708"/>
        <path id="パス_2748" data-name="パス 2748" d="M467.308,145.371c0-5.67,3.688-7.652,7.743-7.652,3.994,0,7.712,1.951,7.712,7.652,0,5.67-3.688,8.048-7.712,8.048-4.055,0-7.743-2.378-7.743-8.048m11.828,1.28c0-3.75-1.311-8.444-4.6-8.444-2.439,0-3.6,2.591-3.6,6.1,0,3.81,1.372,8.657,4.6,8.657,2.408,0,3.6-2.713,3.6-6.31" transform="translate(-360.649 -106.286)" fill="#ebb708"/>
        <path id="パス_2749" data-name="パス 2749" d="M558.451,152.308c.78,0,.79.079.79.131s-.1.072-.269.072c-4.905,0-6.01,1.2-6.01-2.179,0-1.778.226-5.3.226-8.2,0-2.675-.44-4.562-2.358-4.562-2.034,0-3.9,2.41-4.168,4.625-.011.233-.021.468-.029.7v.013c-.013.392-.021.78-.021,1.154,0,1.8,0,4.411.1,5.284.189,2.027.812,2.955,2.227,2.955.564,0,.79.073.79.132,0,.039-.1.072-.269.072-1.755-.05-2.74-.08-4.413-.138-1.618.058-2.659.084-4.506.138-.068,0-.269-.02-.269-.072s.226-.132.789-.132c.9,0,2.123-.284,2.32-2.956a92.872,92.872,0,0,0,.238-9.652,1.948,1.948,0,0,0-1.976-1.888c-.284.015-1.063.146-1.118.149-.244.013-.353-.017-.36-.056s.089-.087.255-.113c1.832-.238,3.094-.716,4.7-.913,1.269-.155,1.761.276,1.761,1.362,0,.312-.023.754-.054,1.277a6.573,6.573,0,0,1,5.035-2.7c2.834,0,4.5,1.412,4.5,4.052,0,1.073-.133,3.828-.094,5.288.09,3.451-.224,6.148,2.186,6.148Z" transform="translate(-416.873 -105.59)" fill="#ebb708"/>
      </g>
    </g>
  </g>
</svg>
